<svg width="26" height="24" viewBox="0 0 26 24" fill="none" xmlns="http://www.w3.org/2000/svg">
<g opacity="0.721494">
<path fill-rule="evenodd" clip-rule="evenodd" d="M13.1656 20.1056C7.90526 20.1596 3.1298 17.0412 1.06399 12.2031L1 12.0512L1.06399 11.8872C3.13473 7.05545 7.90911 3.94406 13.1656 4.00076C17.87 3.97415 22.2296 6.4651 24.5953 10.5315C25.1349 11.4742 25.1349 12.6321 24.5953 13.5749C22.2296 17.6412 17.87 20.1322 13.1656 20.1056ZM23.9235 10.9154C21.6941 7.09182 17.5916 4.75081 13.1656 4.77661C8.27662 4.72302 3.82431 7.58275 1.83983 12.0512C3.82227 16.5219 8.27537 19.3837 13.1656 19.3297C17.5916 19.3555 21.6941 17.0145 23.9235 13.1909C24.3235 12.4852 24.3235 11.6212 23.9235 10.9154Z" fill="#32313F"/>
<path d="M1.06399 12.2031L0.787493 12.3196L0.788087 12.3209L1.06399 12.2031ZM13.1656 20.1056L13.1673 19.8055L13.1625 19.8056L13.1656 20.1056ZM1 12.0512L0.720527 11.9421L0.676295 12.0555L0.723509 12.1676L1 12.0512ZM1.06399 11.8872L0.788095 11.769L0.784514 11.7781L1.06399 11.8872ZM13.1656 4.00076L13.1624 4.30079L13.1673 4.30076L13.1656 4.00076ZM24.5953 10.5315L24.8557 10.3824L24.8546 10.3806L24.5953 10.5315ZM24.5953 13.5749L24.8546 13.7257L24.8557 13.7239L24.5953 13.5749ZM13.1656 4.77661L13.1623 5.07663L13.1673 5.0766L13.1656 4.77661ZM23.9235 10.9154L24.1845 10.7675L24.1826 10.7643L23.9235 10.9154ZM1.83983 12.0512L1.56566 11.9294L1.51162 12.0511L1.56559 12.1728L1.83983 12.0512ZM13.1656 19.3297L13.1673 19.0297L13.1623 19.0297L13.1656 19.3297ZM23.9235 13.1909L24.1826 13.3421L24.1845 13.3389L23.9235 13.1909ZM0.788087 12.3209C2.90152 17.2705 7.78707 20.4608 13.1687 20.4056L13.1625 19.8056C8.02345 19.8583 3.35808 16.8118 1.33989 12.0853L0.788087 12.3209ZM0.723509 12.1676L0.787497 12.3196L1.34048 12.0867L1.27649 11.9348L0.723509 12.1676ZM0.784514 11.7781L0.720527 11.9421L1.27947 12.1602L1.34346 11.9963L0.784514 11.7781ZM13.1688 3.70078C7.79117 3.64277 2.90673 6.82589 0.788244 11.769L1.33973 12.0054C3.36274 7.28501 8.02705 4.24535 13.1624 4.30074L13.1688 3.70078ZM24.8546 10.3806C22.4348 6.22138 17.9757 3.67355 13.1639 3.70077L13.1673 4.30076C17.7643 4.27475 22.0243 6.70882 24.336 10.6823L24.8546 10.3806ZM24.8557 13.7239C25.4481 12.6888 25.4481 11.4175 24.8557 10.3824L24.335 10.6805C24.8217 11.5309 24.8217 12.5754 24.335 13.4258L24.8557 13.7239ZM13.1639 20.4056C17.9757 20.4328 22.4348 17.885 24.8546 13.7257L24.336 13.424C22.0243 17.3975 17.7643 19.8316 13.1673 19.8056L13.1639 20.4056ZM13.1673 5.0766C17.486 5.05144 21.489 7.33566 23.6643 11.0665L24.1826 10.7643C21.8991 6.84797 17.6972 4.45019 13.1638 4.47661L13.1673 5.0766ZM2.11401 12.1729C4.04987 7.81398 8.39311 5.02431 13.1623 5.07659L13.1689 4.47663C8.16014 4.42172 3.59875 7.35151 1.56566 11.9294L2.11401 12.1729ZM13.1623 19.0297C8.3919 19.0824 4.04793 16.2907 2.11408 11.9296L1.56559 12.1728C3.5966 16.753 8.15884 19.685 13.1689 19.6297L13.1623 19.0297ZM23.6643 13.0398C21.489 16.7707 17.486 19.0549 13.1673 19.0297L13.1638 19.6297C17.6972 19.6561 21.8991 17.2584 24.1826 13.3421L23.6643 13.0398ZM23.6625 11.0633C24.0105 11.6773 24.0105 12.429 23.6625 13.043L24.1845 13.3389C24.6365 12.5413 24.6365 11.565 24.1845 10.7675L23.6625 11.0633Z" fill="#323140"/>
<path fill-rule="evenodd" clip-rule="evenodd" d="M18.3726 11.4593C18.3726 14.3307 16.0449 16.6583 13.1736 16.6583C10.3023 16.6583 7.97461 14.3307 7.97461 11.4593C7.97461 8.58803 10.3023 6.26038 13.1736 6.26038C16.0449 6.26038 18.3726 8.58803 18.3726 11.4593ZM17.2739 9.75133C16.5862 8.09417 14.9678 7.01461 13.1736 7.01623C10.7275 7.02283 8.74685 9.00528 8.74246 11.4513C8.74246 13.2456 9.82347 14.863 11.4813 15.5492C13.139 16.2355 15.047 15.8553 16.3151 14.586C17.5832 13.3168 17.9617 11.4085 17.2739 9.75133Z" fill="#32313F"/>
<path d="M13.1736 7.01623L13.1733 6.71623L13.1728 6.71623L13.1736 7.01623ZM17.2739 9.75133L16.9969 9.86632L17.2739 9.75133ZM8.74246 11.4513L8.44246 11.4508V11.4513H8.74246ZM11.4813 15.5492L11.3665 15.8264L11.4813 15.5492ZM13.1736 16.9583C16.2106 16.9583 18.6726 14.4963 18.6726 11.4593H18.0726C18.0726 14.165 15.8792 16.3583 13.1736 16.3583V16.9583ZM7.67461 11.4593C7.67461 14.4963 10.1366 16.9583 13.1736 16.9583V16.3583C10.468 16.3583 8.27461 14.165 8.27461 11.4593H7.67461ZM13.1736 5.96038C10.1366 5.96038 7.67461 8.42235 7.67461 11.4593H8.27461C8.27461 8.75372 10.468 6.56038 13.1736 6.56038V5.96038ZM18.6726 11.4593C18.6726 8.42235 16.2106 5.96038 13.1736 5.96038V6.56038C15.8792 6.56038 18.0726 8.75372 18.0726 11.4593H18.6726ZM13.1739 7.31623C14.8467 7.31472 16.3556 8.32125 16.9969 9.86632L17.551 9.63634C16.8168 7.86708 15.0889 6.7145 13.1733 6.71623L13.1739 7.31623ZM9.04246 11.4519C9.04655 9.17098 10.8935 7.32238 13.1744 7.31623L13.1728 6.71623C10.5616 6.72327 8.44715 8.83958 8.44246 11.4508L9.04246 11.4519ZM11.596 15.2721C10.0504 14.6322 9.04246 13.1242 9.04246 11.4513H8.44246C8.44246 13.3669 9.5966 15.0938 11.3665 15.8264L11.596 15.2721ZM16.1029 14.374C14.9205 15.5574 13.1416 15.9119 11.596 15.2721L11.3665 15.8264C13.1364 16.5591 15.1734 16.1532 16.5273 14.7981L16.1029 14.374ZM16.9969 9.86632C17.6381 11.4114 17.2852 13.1906 16.1029 14.374L16.5273 14.7981C17.8812 13.443 18.2853 11.4056 17.551 9.63634L16.9969 9.86632Z" fill="#323140"/>
<path d="M13.0656 13.5068C14.2105 13.5097 15.1594 12.6201 15.2304 11.4775C15.3015 10.3348 14.47 9.33461 13.3336 9.19568C13.3417 9.28615 13.3417 9.37716 13.3336 9.46762C13.3336 10.6625 12.3649 11.6312 11.17 11.6312C11.0795 11.6373 10.9886 11.6373 10.8981 11.6312C11.0434 12.714 11.9732 13.5186 13.0656 13.5068Z" fill="#32313F" stroke="#323140" stroke-width="0.6"/>
</g>
<path d="M18.5882 1.42308L5.5 21.5" stroke="#6C6B76" stroke-width="1.5" stroke-linecap="square"/>
<path d="M19.5882 1.4231L6.41174 22.5769" stroke="white" stroke-linecap="square"/>
</svg>
