<svg width="26" height="18" viewBox="0 0 26 18" fill="none" xmlns="http://www.w3.org/2000/svg">
<g opacity="0.726051">
<path fill-rule="evenodd" clip-rule="evenodd" d="M23.7692 1H2.23079C1.55383 1 1 1.56276 1 2.2506V16.0074C1 16.6952 1.55383 17.2581 2.23079 17.2581H23.7692C24.4461 17.2581 25 16.6953 25 16.0074V2.2506C25 1.56276 24.4461 1 23.7692 1ZM23.3073 1.9379L13.708 9.25411C13.5354 9.38757 13.2704 9.47107 12.9999 9.46983C12.7295 9.47107 12.4646 9.38757 12.2919 9.25411L2.69261 1.9379H23.3073ZM23.4104 16.3026L18.1797 9.73685C18.0193 9.53551 18.0498 9.23996 18.2482 9.07711C18.4461 8.91422 18.7369 8.94518 18.8972 9.14651L24.0767 15.6481V2.52414L14.2614 10.0044C13.8922 10.2839 13.4429 10.4068 12.9999 10.4077C12.5562 10.4065 12.1073 10.2836 11.7384 10.0044L1.92306 2.52414V15.6482L7.10274 9.14651C7.26305 8.94513 7.55353 8.91426 7.75167 9.07711C7.95019 9.24035 7.98056 9.53551 7.8203 9.73685L2.58953 16.3026C2.58661 16.3063 2.58332 16.3094 2.58003 16.3124C2.57738 16.3149 2.57474 16.3174 2.57228 16.3202H23.4277C23.4221 16.3142 23.4157 16.3092 23.4104 16.3026Z" fill="#32313F"/>
<path d="M25 2.2506H25.25V2.25058L25 2.2506ZM13.708 9.25411L13.5564 9.05527L13.555 9.05634L13.708 9.25411ZM23.3073 1.9379L23.4588 2.13673L24.0477 1.6879H23.3073V1.9379ZM12.9999 9.46983L13.0011 9.21982L12.9988 9.21983L12.9999 9.46983ZM12.2919 9.25411L12.4448 9.05632L12.4435 9.05528L12.2919 9.25411ZM2.69261 1.9379V1.6879H1.95217L2.54106 2.13673L2.69261 1.9379ZM18.1797 9.73685L17.9841 9.8926L17.9841 9.89263L18.1797 9.73685ZM23.4104 16.3026L23.2149 16.4584L23.2151 16.4586L23.4104 16.3026ZM18.2482 9.07711L18.4068 9.27038L18.4071 9.27012L18.2482 9.07711ZM18.8972 9.14651L18.7016 9.30224L18.7016 9.30229L18.8972 9.14651ZM24.0767 15.6481L23.8812 15.8039L24.3267 16.3631V15.6481H24.0767ZM24.0767 2.52414H24.3267V2.01929L23.9252 2.3253L24.0767 2.52414ZM14.2614 10.0044L14.4123 10.2037L14.4129 10.2032L14.2614 10.0044ZM12.9999 10.4077L12.9992 10.6577L13.0004 10.6577L12.9999 10.4077ZM11.7384 10.0044L11.5868 10.2032L11.5875 10.2037L11.7384 10.0044ZM1.92306 2.52414L2.0746 2.3253L1.67306 2.01929V2.52414H1.92306ZM1.92306 15.6482H1.67306V16.3632L2.1186 15.804L1.92306 15.6482ZM7.10274 9.14651L7.29827 9.30229L7.29833 9.30222L7.10274 9.14651ZM7.75167 9.07711L7.91046 8.88401L7.91041 8.88398L7.75167 9.07711ZM7.8203 9.73685L8.01583 9.89263L8.0159 9.89255L7.8203 9.73685ZM2.58953 16.3026L2.78486 16.4587L2.78506 16.4584L2.58953 16.3026ZM2.58003 16.3124L2.75077 16.4951L2.75078 16.495L2.58003 16.3124ZM2.57228 16.3202L2.38521 16.1543L2.01656 16.5702H2.57228V16.3202ZM23.4277 16.3202V16.5702H24.0045L23.6101 16.1492L23.4277 16.3202ZM2.23079 1.25H23.7692V0.75H2.23079V1.25ZM1.25 2.2506C1.25 1.69705 1.69565 1.25 2.23079 1.25V0.75C1.41201 0.75 0.75 1.42847 0.75 2.2506H1.25ZM1.25 16.0074V2.2506H0.75V16.0074H1.25ZM2.23079 17.0081C1.69567 17.0081 1.25 16.5609 1.25 16.0074H0.75C0.75 16.8295 1.41199 17.5081 2.23079 17.5081V17.0081ZM23.7692 17.0081H2.23079V17.5081H23.7692V17.0081ZM24.75 16.0074C24.75 16.561 24.3043 17.0081 23.7692 17.0081V17.5081C24.5879 17.5081 25.25 16.8296 25.25 16.0074H24.75ZM24.75 2.2506V16.0074H25.25V2.2506H24.75ZM23.7692 1.25C24.3043 1.25 24.75 1.69705 24.75 2.25062L25.25 2.25058C25.2499 1.42847 24.588 0.75 23.7692 0.75V1.25ZM13.8595 9.45294L23.4588 2.13673L23.1558 1.73907L13.5564 9.05528L13.8595 9.45294ZM12.9988 9.71983C13.3146 9.72128 13.6366 9.62533 13.8609 9.45188L13.555 9.05634C13.4342 9.14982 13.2263 9.22087 13.0011 9.21983L12.9988 9.71983ZM12.139 9.4519C12.3634 9.62532 12.6853 9.72128 13.0011 9.71983L12.9988 9.21983C12.7736 9.22087 12.5658 9.14983 12.4448 9.05632L12.139 9.4519ZM2.54106 2.13673L12.1404 9.45294L12.4435 9.05528L2.84415 1.73907L2.54106 2.13673ZM23.3073 1.6879H2.69261V2.1879H23.3073V1.6879ZM17.9841 9.89263L23.2149 16.4584L23.606 16.1469L18.3752 9.58107L17.9841 9.89263ZM18.0897 8.88385C17.7847 9.13404 17.7393 9.58519 17.9841 9.8926L18.3752 9.5811C18.2993 9.48584 18.3148 9.34589 18.4068 9.27038L18.0897 8.88385ZM19.0927 8.99079C18.8459 8.68079 18.3956 8.63195 18.0893 8.88411L18.4071 9.27012C18.4966 9.19648 18.6278 9.20956 18.7016 9.30224L19.0927 8.99079ZM24.2722 15.4923L19.0927 8.99074L18.7016 9.30229L23.8812 15.8039L24.2722 15.4923ZM23.8267 2.52414V15.6481H24.3267V2.52414H23.8267ZM14.4129 10.2032L24.2282 2.72298L23.9252 2.3253L14.1098 9.80555L14.4129 10.2032ZM13.0004 10.6577C13.488 10.6567 13.9926 10.5214 14.4123 10.2037L14.1105 9.80507C13.7918 10.0464 13.3979 10.1569 12.9993 10.1577L13.0004 10.6577ZM11.5875 10.2037C12.0069 10.5211 12.5111 10.6564 12.9992 10.6577L13.0006 10.1577C12.6013 10.1566 12.2077 10.0461 11.8892 9.80504L11.5875 10.2037ZM1.77153 2.72298L11.5869 10.2032L11.8899 9.80555L2.0746 2.3253L1.77153 2.72298ZM2.17306 15.6482V2.52414H1.67306V15.6482H2.17306ZM6.9072 8.99074L1.72753 15.4924L2.1186 15.804L7.29827 9.30229L6.9072 8.99074ZM7.91041 8.88398C7.60403 8.63217 7.15408 8.6806 6.90715 8.99081L7.29833 9.30222C7.37202 9.20965 7.50303 9.19636 7.59294 9.27025L7.91041 8.88398ZM8.0159 9.89255C8.26065 9.58508 8.21509 9.13451 7.91046 8.88401L7.59289 9.27022C7.68529 9.34619 7.70048 9.48595 7.6247 9.58115L8.0159 9.89255ZM2.78506 16.4584L8.01583 9.89263L7.62476 9.58107L2.39399 16.1469L2.78506 16.4584ZM2.75078 16.495C2.75218 16.4937 2.76883 16.4787 2.78486 16.4587L2.3942 16.1466C2.39993 16.1394 2.40486 16.1343 2.40751 16.1316C2.40972 16.1294 2.41147 16.1278 2.40927 16.1298L2.75078 16.495ZM2.75935 16.486C2.75561 16.4902 2.75259 16.4932 2.75115 16.4947C2.74997 16.4958 2.74911 16.4966 2.75077 16.4951L2.40928 16.1298C2.40788 16.1311 2.39667 16.1414 2.38521 16.1543L2.75935 16.486ZM23.4277 16.0702H2.57228V16.5702H23.4277V16.0702ZM23.2151 16.4586C23.2288 16.4758 23.242 16.4883 23.2466 16.4927C23.2478 16.4939 23.2491 16.4951 23.2496 16.4955C23.2502 16.4962 23.2504 16.4963 23.2503 16.4962C23.2502 16.4962 23.2481 16.4942 23.2453 16.4911L23.6101 16.1492C23.6044 16.1432 23.5995 16.1383 23.5964 16.1354C23.5949 16.134 23.5935 16.1327 23.5927 16.1319C23.5917 16.131 23.5915 16.1308 23.5913 16.1305C23.5909 16.1301 23.5925 16.1317 23.5949 16.1341C23.5974 16.1367 23.6013 16.141 23.6058 16.1466L23.2151 16.4586Z" fill="#323140"/>
</g>
</svg>
