<svg width="26" height="17" viewBox="0 0 26 17" fill="none" xmlns="http://www.w3.org/2000/svg">
<g opacity="0.721494">
<path fill-rule="evenodd" clip-rule="evenodd" d="M13.1656 16.1056C7.90526 16.1596 3.1298 13.0412 1.06399 8.20314L1 8.05117L1.06399 7.8872C3.13473 3.05545 7.90911 -0.0559427 13.1656 0.000762251C17.87 -0.0258493 22.2296 2.4651 24.5953 6.53147C25.1349 7.47419 25.1349 8.63214 24.5953 9.57487C22.2296 13.6412 17.87 16.1322 13.1656 16.1056ZM23.9235 6.91539C21.6941 3.09182 17.5916 0.750815 13.1656 0.776609C8.27662 0.723018 3.82431 3.58275 1.83983 8.05117C3.82227 12.5219 8.27537 15.3837 13.1656 15.3297C17.5916 15.3555 21.6941 13.0145 23.9235 9.19094C24.3235 8.48516 24.3235 7.62118 23.9235 6.91539Z" fill="#32313F"/>
<path d="M1.06399 8.20314L0.787493 8.31956L0.788087 8.32095L1.06399 8.20314ZM13.1656 16.1056L13.1673 15.8055L13.1625 15.8056L13.1656 16.1056ZM1 8.05117L0.720527 7.94211L0.676295 8.05545L0.723509 8.16759L1 8.05117ZM1.06399 7.8872L0.788095 7.76896L0.784514 7.77814L1.06399 7.8872ZM13.1656 0.000762251L13.1624 0.300785L13.1673 0.300757L13.1656 0.000762251ZM24.5953 6.53147L24.8557 6.38244L24.8546 6.38061L24.5953 6.53147ZM24.5953 9.57487L24.8546 9.72573L24.8557 9.72389L24.5953 9.57487ZM13.1656 0.776609L13.1623 1.07663L13.1673 1.0766L13.1656 0.776609ZM23.9235 6.91539L24.1845 6.76746L24.1826 6.76428L23.9235 6.91539ZM1.83983 8.05117L1.56566 7.9294L1.51162 8.05107L1.56559 8.17278L1.83983 8.05117ZM13.1656 15.3297L13.1673 15.0297L13.1623 15.0297L13.1656 15.3297ZM23.9235 9.19094L24.1826 9.34207L24.1845 9.33886L23.9235 9.19094ZM0.788087 8.32095C2.90152 13.2705 7.78707 16.4608 13.1687 16.4056L13.1625 15.8056C8.02345 15.8583 3.35808 12.8118 1.33989 8.08533L0.788087 8.32095ZM0.723509 8.16759L0.787497 8.31956L1.34048 8.08672L1.27649 7.93475L0.723509 8.16759ZM0.784514 7.77814L0.720527 7.94211L1.27947 8.16023L1.34346 7.99626L0.784514 7.77814ZM13.1688 -0.29922C7.79117 -0.357233 2.90673 2.82589 0.788244 7.76903L1.33973 8.00538C3.36274 3.28501 8.02705 0.245347 13.1624 0.300745L13.1688 -0.29922ZM24.8546 6.38061C22.4348 2.22138 17.9757 -0.326452 13.1639 -0.299233L13.1673 0.300757C17.7643 0.274754 22.0243 2.70882 24.336 6.68233L24.8546 6.38061ZM24.8557 9.72389C25.4481 8.68884 25.4481 7.41749 24.8557 6.38245L24.335 6.68049C24.8217 7.53089 24.8217 8.57545 24.335 9.42585L24.8557 9.72389ZM13.1639 16.4056C17.9757 16.4328 22.4348 13.885 24.8546 9.72573L24.336 9.424C22.0243 13.3975 17.7643 15.8316 13.1673 15.8056L13.1639 16.4056ZM13.1673 1.0766C17.486 1.05144 21.489 3.33566 23.6643 7.0665L24.1826 6.76428C21.8991 2.84797 17.6972 0.450194 13.1638 0.476614L13.1673 1.0766ZM2.11401 8.17293C4.04987 3.81398 8.39311 1.02431 13.1623 1.07659L13.1689 0.476627C8.16014 0.421723 3.59875 3.35151 1.56566 7.9294L2.11401 8.17293ZM13.1623 15.0297C8.3919 15.0824 4.04793 12.2907 2.11408 7.92956L1.56559 8.17278C3.5966 12.753 8.15884 15.685 13.1689 15.6297L13.1623 15.0297ZM23.6643 9.03983C21.489 12.7707 17.486 15.0549 13.1673 15.0297L13.1638 15.6297C17.6972 15.6561 21.8991 13.2584 24.1826 9.34205L23.6643 9.03983ZM23.6625 7.06331C24.0105 7.67734 24.0105 8.429 23.6625 9.04302L24.1845 9.33886C24.6365 8.54132 24.6365 7.56501 24.1845 6.76747L23.6625 7.06331Z" fill="#323140"/>
<path fill-rule="evenodd" clip-rule="evenodd" d="M18.3726 7.45935C18.3726 10.3307 16.0449 12.6583 13.1736 12.6583C10.3023 12.6583 7.97461 10.3307 7.97461 7.45935C7.97461 4.58803 10.3023 2.26038 13.1736 2.26038C16.0449 2.26038 18.3726 4.58803 18.3726 7.45935ZM17.2739 5.75133C16.5862 4.09417 14.9678 3.01461 13.1736 3.01623C10.7275 3.02283 8.74685 5.00528 8.74246 7.45135C8.74246 9.24555 9.82347 10.863 11.4813 11.5492C13.139 12.2355 15.047 11.8553 16.3151 10.586C17.5832 9.31677 17.9617 7.40849 17.2739 5.75133Z" fill="#32313F"/>
<path d="M13.1736 3.01623L13.1733 2.71623L13.1728 2.71623L13.1736 3.01623ZM17.2739 5.75133L16.9969 5.86632L17.2739 5.75133ZM8.74246 7.45135L8.44246 7.45081V7.45135H8.74246ZM11.4813 11.5492L11.3665 11.8264L11.4813 11.5492ZM13.1736 12.9583C16.2106 12.9583 18.6726 10.4963 18.6726 7.45935H18.0726C18.0726 10.165 15.8792 12.3583 13.1736 12.3583V12.9583ZM7.67461 7.45935C7.67461 10.4963 10.1366 12.9583 13.1736 12.9583V12.3583C10.468 12.3583 8.27461 10.165 8.27461 7.45935H7.67461ZM13.1736 1.96038C10.1366 1.96038 7.67461 4.42235 7.67461 7.45935H8.27461C8.27461 4.75372 10.468 2.56038 13.1736 2.56038V1.96038ZM18.6726 7.45935C18.6726 4.42235 16.2106 1.96038 13.1736 1.96038V2.56038C15.8792 2.56038 18.0726 4.75372 18.0726 7.45935H18.6726ZM13.1739 3.31623C14.8467 3.31472 16.3556 4.32125 16.9969 5.86632L17.551 5.63634C16.8168 3.86708 15.0889 2.7145 13.1733 2.71623L13.1739 3.31623ZM9.04246 7.45189C9.04655 5.17098 10.8935 3.32238 13.1744 3.31623L13.1728 2.71623C10.5616 2.72327 8.44715 4.83958 8.44246 7.45081L9.04246 7.45189ZM11.596 11.2721C10.0504 10.6322 9.04246 9.12419 9.04246 7.45135H8.44246C8.44246 9.36692 9.5966 11.0938 11.3665 11.8264L11.596 11.2721ZM16.1029 10.374C14.9205 11.5574 13.1416 11.9119 11.596 11.2721L11.3665 11.8264C13.1364 12.5591 15.1734 12.1532 16.5273 10.7981L16.1029 10.374ZM16.9969 5.86632C17.6381 7.41139 17.2852 9.19059 16.1029 10.374L16.5273 10.7981C17.8812 9.44295 18.2853 7.40559 17.551 5.63634L16.9969 5.86632Z" fill="#323140"/>
<path d="M13.0655 9.50683C14.2104 9.50968 15.1593 8.62014 15.2303 7.47747C15.3013 6.33481 14.4699 5.33461 13.3335 5.19568C13.3416 5.28615 13.3416 5.37716 13.3335 5.46762C13.3335 6.66253 12.3648 7.6312 11.1699 7.6312C11.0793 7.63728 10.9885 7.63728 10.8979 7.6312C11.0433 8.714 11.9731 9.51856 13.0655 9.50683Z" fill="#32313F" stroke="#323140" stroke-width="0.6"/>
</g>
</svg>
